<svg width="203" height="259" viewBox="0 0 203 259" fill="none" xmlns="http://www.w3.org/2000/svg">
<path d="M35 17.3196C35 26.8849 22.5 41.3196 17.5 48C13 41.567 0 26.8849 0 17.3196C0 7.75424 7.83502 0 17.5 0C27.165 0 35 7.75424 35 17.3196Z" fill="#4356FF"/>
<rect x="6.73071" y="7.33325" width="21.5385" height="20.6667" rx="10.3333" fill="white"/>
<path d="M203 177.01C203 189.166 187.643 207.51 181.5 216C175.971 207.825 160 189.166 160 177.01C160 164.854 169.626 155 181.5 155C193.374 155 203 164.854 203 177.01Z" fill="#4356FF"/>
<rect x="168.269" y="164.319" width="26.4615" height="26.2639" rx="13.1319" fill="white"/>
<path d="M19.5 60L51.5 51L79.5 50L105 51L132.5 56L152.5 72.5L157 93.5L153 112L136.5 126.5L111.5 135.5L80.5 133.25L53.5 134L27.75 145.25L13 164.5L10 184L13 203.5L24.75 223.25L38.125 237.125L53.5 245L71.25 251.75L91 254.5L110.75 252.75L127.625 248.875L145.5 244L161.5 236.75L178.5 226.5" stroke="black" stroke-opacity="0.6" stroke-width="7" stroke-linecap="square" stroke-dasharray="15 8"/>
</svg>
